{
  "asset": {
    "generator": "glTF-Transform v4.2.1",
    "version": "2.0",
    "extras": {
      "author": "YouniqueĪdeaStudio (https://sketchfab.com/sinnervoncrawsz)",
      "license": "CC-BY-4.0 (http://creativecommons.org/licenses/by/4.0/)",
      "source": "https://sketchfab.com/3d-models/bottle-cap-3199fc3d6aa745fdbbdb153a4bddc903",
      "title": "BOTTLE CAP"
    }
  },
  "accessors": [
    {
      "type": "VEC3",
      "componentType": 5126,
      "count": 6061,
      "max": [
        1.8159600496292114,
        14.120240211486816,
        14.066020011901855
      ],
      "min": [
        -3.6063599586486816,
        -14.056380271911621,
        -14.144800186157227
      ],
      "bufferView": 0,
      "byteOffset": 0
    },
    {
      "type": "VEC3",
      "componentType": 5126,
      "count": 6061,
      "bufferView": 0,
      "byteOffset": 12
    },
    {
      "type": "SCALAR",
      "componentType": 5125,
      "count": 35733,
      "bufferView": 1,
      "byteOffset": 0
    }
  ],
  "bufferViews": [
    {
      "buffer": 0,
      "byteOffset": 0,
      "byteLength": 145464,
      "byteStride": 24,
      "target": 34962
    },
    {
      "buffer": 0,
      "byteOffset": 145464,
      "byteLength": 142932,
      "target": 34963
    }
  ],
  "buffers": [
    {
      "uri": "scene.bin",
      "byteLength": 288396
    }
  ],
  "materials": [
    {
      "name": "Root",
      "doubleSided": true,
      "pbrMetallicRoughness": {
        "baseColorFactor": [
          0.8708333015441895,
          0.8708333015441895,
          0.8708333015441895,
          1
        ],
        "roughnessFactor": 0.07916669845581059
      }
    }
  ],
  "meshes": [
    {
      "name": "Cylinder_0",
      "primitives": [
        {
          "attributes": {
            "NORMAL": 1,
            "POSITION": 0
          },
          "mode": 4,
          "material": 0,
          "indices": 2
        }
      ]
    }
  ],
  "nodes": [
    {
      "name": "Sketchfab_model",
      "translation": [
        -1.1507554054260254,
        0.38077536225318925,
        -0.8017475605010985
      ],
      "rotation": [
        -0.5880357759936802,
        -0.14248958009915047,
        -0.49578594751806776,
        0.6229822958773608
      ],
      "children": [
        1
      ]
    },
    {
      "name": "Root",
      "children": [
        2,
        4
      ]
    },
    {
      "name": "Lamp",
      "translation": [
        4.076250000000001,
        1.00545,
        5.903860000000001
      ],
      "rotation": [
        0.16907447008309556,
        0.2721706359913094,
        0.7558797583695019,
        0.5709491121494871
      ],
      "children": [
        3
      ]
    },
    {
      "name": "Lamp"
    },
    {
      "name": "Cylinder",
      "rotation": [
        0.7071067811865475,
        0,
        0.7071067811865476,
        0
      ],
      "scale": [
        0.1501,
        0.1501,
        0.1501
      ],
      "children": [
        5
      ]
    },
    {
      "name": "Cylinder_0",
      "mesh": 0
    }
  ],
  "scenes": [
    {
      "name": "Sketchfab_Scene",
      "nodes": [
        0
      ]
    }
  ],
  "scene": 0
}