{
  "accessors": [
    {
      "bufferView": 2,
      "componentType": 5126,
      "count": 22626,
      "max": [
        0.1839805245399475,
        0.1839805245399475,
        0.13416680693626404
      ],
      "min": [
        -0.1839805245399475,
        -0.1839805245399475,
        -0.15415598452091217
      ],
      "type": "VEC3"
    },
    {
      "bufferView": 2,
      "byteOffset": 271512,
      "componentType": 5126,
      "count": 22626,
      "max": [
        1.0,
        1.0,
        1.0
      ],
      "min": [
        -1.0,
        -1.0,
        -1.0
      ],
      "type": "VEC3"
    },
    {
      "bufferView": 3,
      "componentType": 5126,
      "count": 22626,
      "max": [
        1.0,
        0.9993767738342285,
        1.0,
        1.0
      ],
      "min": [
        -0.9994348883628845,
        -0.9993992447853088,
        -0.9999986886978149,
        -1.0
      ],
      "type": "VEC4"
    },
    {
      "bufferView": 1,
      "componentType": 5126,
      "count": 22626,
      "max": [
        0.9929301142692566,
        0.880769670009613
      ],
      "min": [
        0.007069924846291542,
        0.007069900631904602
      ],
      "type": "VEC2"
    },
    {
      "bufferView": 1,
      "byteOffset": 181008,
      "componentType": 5126,
      "count": 22626,
      "max": [
        0.9929301142692566,
        0.880769670009613
      ],
      "min": [
        0.007069924846291542,
        0.007069900631904602
      ],
      "type": "VEC2"
    },
    {
      "bufferView": 0,
      "componentType": 5125,
      "count": 129024,
      "type": "SCALAR"
    }
  ],
  "asset": {
    "extras": {
      "author": "tandukuda (https://sketchfab.com/tandukuda)",
      "license": "SKETCHFAB Standard (https://sketchfab.com/licenses)",
      "source": "https://sketchfab.com/3d-models/coffee-capsule-7937db4027be4a7dbcfc8749d0acc494",
      "title": "Coffee Capsule"
    },
    "generator": "Sketchfab-16.56.0",
    "version": "2.0"
  },
  "bufferViews": [
    {
      "buffer": 0,
      "byteLength": 516096,
      "name": "floatBufferViews",
      "target": 34963
    },
    {
      "buffer": 0,
      "byteLength": 362016,
      "byteOffset": 516096,
      "byteStride": 8,
      "name": "floatBufferViews",
      "target": 34962
    },
    {
      "buffer": 0,
      "byteLength": 543024,
      "byteOffset": 878112,
      "byteStride": 12,
      "name": "floatBufferViews",
      "target": 34962
    },
    {
      "buffer": 0,
      "byteLength": 362016,
      "byteOffset": 1421136,
      "byteStride": 16,
      "name": "floatBufferViews",
      "target": 34962
    }
  ],
  "buffers": [
    {
      "byteLength": 1783152,
      "uri": "scene.bin"
    }
  ],
  "images": [
    {
      "uri": "textures/Coffee_Capsule_Baked_baseColor.png"
    },
    {
      "uri": "textures/Coffee_Capsule_Baked_metallicRoughness.png"
    },
    {
      "uri": "textures/Coffee_Capsule_Baked_normal.png"
    }
  ],
  "materials": [
    {
      "doubleSided": true,
      "name": "Coffee_Capsule_Baked",
      "normalTexture": {
        "index": 2
      },
      "pbrMetallicRoughness": {
        "baseColorTexture": {
          "index": 0
        },
        "metallicRoughnessTexture": {
          "index": 1
        }
      }
    }
  ],
  "meshes": [
    {
      "name": "Coffee_Capsule_Coffee_Capsule_Baked_0",
      "primitives": [
        {
          "attributes": {
            "NORMAL": 1,
            "POSITION": 0,
            "TANGENT": 2,
            "TEXCOORD_0": 3,
            "TEXCOORD_1": 4
          },
          "indices": 5,
          "material": 0,
          "mode": 4
        }
      ]
    }
  ],
  "nodes": [
    {
      "children": [
        1
      ],
      "matrix": [
        1.0,
        0.0,
        0.0,
        0.0,
        0.0,
        2.220446049250313e-16,
        -1.0,
        0.0,
        0.0,
        1.0,
        2.220446049250313e-16,
        0.0,
        0.0,
        0.0,
        0.0,
        1.0
      ],
      "name": "Sketchfab_model"
    },
    {
      "children": [
        2
      ],
      "matrix": [
        0.009999999776482582,
        0.0,
        0.0,
        0.0,
        0.0,
        0.0,
        0.009999999776482582,
        0.0,
        0.0,
        -0.009999999776482582,
        0.0,
        0.0,
        0.0,
        0.0,
        0.0,
        1.0
      ],
      "name": "Coffee Capsule.fbx"
    },
    {
      "children": [
        3
      ],
      "name": "RootNode"
    },
    {
      "children": [
        4
      ],
      "matrix": [
        100.0,
        0.0,
        0.0,
        0.0,
        0.0,
        -1.629206793918314e-05,
        -99.99999999999868,
        0.0,
        0.0,
        99.99999999999868,
        -1.629206793918314e-05,
        0.0,
        0.0,
        0.0,
        0.0,
        1.0
      ],
      "name": "Coffee_Capsule"
    },
    {
      "mesh": 0,
      "name": "Coffee_Capsule_Coffee_Capsule_Baked_0"
    }
  ],
  "samplers": [
    {
      "magFilter": 9729,
      "minFilter": 9987,
      "wrapS": 10497,
      "wrapT": 10497
    }
  ],
  "scene": 0,
  "scenes": [
    {
      "name": "Sketchfab_Scene",
      "nodes": [
        0
      ]
    }
  ],
  "textures": [
    {
      "sampler": 0,
      "source": 0
    },
    {
      "sampler": 0,
      "source": 1
    },
    {
      "sampler": 0,
      "source": 2
    }
  ]
}
